PathFileType	4	(X/Y/Z)	s11c0202.trc
DataRate	CameraRate	NumFrames	NumMarkers	Units	OrigDataRate	OrigDataStartFrame	OrigNumFrames
200	200	5	48	mm	200	0	2000
Frame#	Time	racr			lacr			c7			jug			rlel			rdr			llel			ldr			s2			lic			ric			lasi			rasi			rpsi			lpsi			rgt			lgt			rth1			rth2			rth3			rth4			rlfc			rmfc			rsh1			rsh2			rsh3			rsh4			rlmal			rcal			rtoe			rmt5			lth1			lth2			lth4			lth3			llfc			lmfc			llmal			lcal			lmt5			lsh1			lsh2			lsh3			lsh4			ltoe			SBIKE			LBIKE			RBIKE			
		X1	Y1	Z1	X2	Y2	Z2	X3	Y3	Z3	X4	Y4	Z4	X5	Y5	Z5	X6	Y6	Z6	X7	Y7	Z7	X8	Y8	Z8	X9	Y9	Z9	X10	Y10	Z10	X11	Y11	Z11	X12	Y12	Z12	X13	Y13	Z13	X14	Y14	Z14	X15	Y15	Z15	X16	Y16	Z16	X17	Y17	Z17	X18	Y18	Z18	X19	Y19	Z19	X20	Y20	Z20	X21	Y21	Z21	X22	Y22	Z22	X23	Y23	Z23	X24	Y24	Z24	X25	Y25	Z25	X26	Y26	Z26	X27	Y27	Z27	X28	Y28	Z28	X29	Y29	Z29	X30	Y30	Z30	X31	Y31	Z31	X32	Y32	Z32	X33	Y33	Z33	X34	Y34	Z34	X35	Y35	Z35	X36	Y36	Z36	X37	Y37	Z37	X38	Y38	Z38	X39	Y39	Z39	X40	Y40	Z40	X41	Y41	Z41	X42	Y42	Z42	X43	Y43	Z43	X44	Y44	Z44	X45	Y45	Z45	X46	Y46	Z46	X47	Y47	Z47	X48	Y48	Z48	
0	0.0000	432.365686	1448.386305	-96.796462	417.868951	1467.300950	-419.790594	323.094586	1566.730688	-254.884421	379.322005	1400.005061	-264.064915	559.155917	1191.955903	-37.178190	771.485123	972.202395	-74.550812	525.198232	1179.671506	-497.790542	768.680923	963.378724	-479.027397	-145.014042	1178.310692	-256.109691	69.551843	1220.271117	-458.602465	74.834829	1214.533777	-61.287240	116.359647	1149.748250	-430.506840	109.219081	1153.701280	-100.928368	-109.144008	1252.383976	-203.599796	-113.458143	1243.111659	-297.650449	45.421882	1073.358235	-39.694933	-0.296279	1069.703545	-469.772932	174.227062	1004.679500	-45.259705	261.748323	989.942007	-58.500755	327.690809	934.629488	-73.037799	274.705845	1022.520589	-71.961658	423.025255	877.579491	-93.802158	426.511061	858.630993	-221.722341	388.618210	718.616636	-78.623348	389.625408	631.578476	-95.034627	348.748561	554.631557	-95.323489	414.035841	629.038291	-126.759696	304.533073	427.866197	-106.140917	239.775412	412.020271	-152.322584	522.911842	362.100033	-152.113146	452.435941	340.109401	-82.093052	110.675232	967.027506	-490.379388	185.672123	925.934537	-489.781215	212.010254	951.011704	-481.917116	231.418858	848.411592	-487.673618	313.104646	741.388582	-465.796814	331.874237	734.489572	-338.346996	1.085353	452.129569	-418.231536	-69.079375	434.774659	-378.014620	93.484143	309.280179	-451.549697	219.948961	658.649149	-477.370183	180.516486	585.186576	-459.595923	106.038755	537.831266	-447.797155	206.300778	567.196641	-437.295777	192.424826	292.586300	-386.954456	-215.816753	952.072435	-256.828335	-18.105816	80.976353	-460.669573	-17.881892	80.852678	-61.999670	
1	0.0050	432.210138	1448.242870	-97.080334	417.864185	1467.047841	-420.090477	323.600042	1566.518223	-255.008936	379.605085	1399.584462	-264.190540	559.313982	1191.970892	-37.114745	771.627867	972.218192	-74.146944	525.120267	1179.530355	-498.013799	768.684112	963.339053	-479.168570	-144.834746	1178.469237	-256.152164	69.752110	1220.231401	-458.721188	75.023149	1214.440067	-61.311001	116.488183	1149.579057	-430.578741	109.378628	1153.634897	-100.956976	-110.025485	1252.626647	-204.096915	-113.258033	1243.199446	-297.680324	45.536021	1073.349512	-39.711152	-0.260838	1069.699519	-469.807725	174.273950	1004.613306	-45.304297	261.808585	989.843527	-58.562488	327.720783	934.434890	-73.095996	274.796675	1022.404801	-72.033716	423.010901	877.434187	-93.902342	426.434263	858.509287	-221.864496	388.619586	718.492921	-78.692964	389.624760	631.445937	-95.097118	348.738331	554.477327	-95.357220	414.018067	628.912779	-126.819761	304.546707	427.662718	-106.164023	239.811083	411.849334	-152.369182	522.899157	361.996083	-152.106438	452.454444	339.981910	-82.107376	110.724303	967.026724	-490.411464	185.735073	925.955170	-489.833494	212.081489	951.026526	-481.937467	231.476752	848.451738	-487.713596	313.196016	741.429850	-465.811989	331.961726	734.512037	-338.363594	1.100746	452.269385	-418.244911	-69.081703	434.937232	-378.004118	93.469428	309.393967	-451.553017	219.989276	658.751769	-477.381906	180.565581	585.285965	-459.606597	106.067264	537.934340	-447.801269	206.321214	567.263866	-437.323682	192.412531	292.704663	-386.941032	-215.813072	952.079669	-256.836730	-18.129020	81.062647	-460.615020	-17.869666	80.887561	-62.021347	
2	0.0100	432.759357	1448.404981	-96.902656	417.878786	1466.792966	-420.371340	324.011415	1566.274136	-255.134994	379.845454	1399.271264	-264.286860	559.489712	1191.991767	-37.043789	771.765095	972.198266	-73.712736	525.076731	1179.385137	-498.212826	768.695290	963.279813	-479.285177	-144.704823	1178.559331	-256.185615	69.937513	1220.111797	-458.820228	75.175324	1214.410265	-61.386701	116.566862	1149.391440	-430.647851	109.522638	1153.515383	-100.994631	-109.797057	1252.786499	-204.149726	-113.064196	1243.280109	-297.687797	45.642927	1073.350901	-39.733274	-0.220283	1069.695950	-469.851470	174.319579	1004.538059	-45.336973	261.862225	989.762646	-58.600794	327.743080	934.315941	-73.164213	274.848345	1022.304573	-72.071583	422.998159	877.301747	-94.024637	426.389008	858.339491	-221.969472	388.595022	718.388725	-78.766472	389.626565	631.290421	-95.167299	348.764431	554.293826	-95.418990	413.989789	628.782797	-126.919194	304.524254	427.521889	-106.170188	239.881257	411.597705	-152.443152	522.889809	361.884807	-152.100257	452.442393	339.867286	-82.107374	110.775169	967.027423	-490.456479	185.790016	925.959603	-489.857740	212.136293	951.033777	-481.958814	231.563885	848.461752	-487.729922	313.294331	741.473782	-465.815950	332.034453	734.576900	-338.386409	1.125533	452.399482	-418.253422	-69.085585	435.089659	-377.997670	93.483509	309.543381	-451.561910	220.041971	658.821426	-477.395134	180.614893	585.395578	-459.625991	106.103754	538.040474	-447.820847	206.339515	567.339021	-437.335519	192.413764	292.839303	-386.968610	-215.806870	952.086882	-256.815908	-18.126384	81.065274	-460.627509	-17.827838	80.881648	-62.090007	
3	0.0150	433.063182	1448.343191	-96.944709	417.831876	1466.504075	-420.569455	324.371557	1565.996975	-255.188114	380.054973	1399.025261	-264.366636	559.673822	1192.044166	-36.963925	771.954600	972.217090	-73.262930	524.750216	1179.445702	-498.880146	768.489701	962.877059	-478.696123	-144.126701	1178.320139	-256.166557	70.186361	1220.016215	-458.926711	75.436007	1214.389646	-61.419180	116.680457	1149.201953	-430.728557	109.685255	1153.437995	-100.993266	-111.180802	1253.430804	-203.082380	-112.870560	1243.366339	-297.709026	45.737297	1073.359818	-39.731401	-0.015879	1069.374389	-469.824094	174.420671	1004.446580	-45.439432	261.927278	989.661528	-58.648755	327.779454	934.188436	-73.253634	274.896530	1022.196418	-72.124831	422.990519	877.149728	-94.124941	426.341423	858.197827	-222.093736	388.439910	718.325336	-78.794209	389.817893	631.314309	-95.125066	348.773245	554.116452	-95.455927	413.993098	628.683081	-126.932474	304.524263	427.384534	-106.230803	239.917787	411.388054	-152.441728	522.884000	361.739570	-152.110097	452.478903	339.713925	-82.101508	110.839938	967.012208	-490.479419	185.846170	925.960518	-489.875670	212.176974	951.103542	-481.993837	231.744708	848.038511	-486.869299	313.406621	741.509714	-465.803423	332.099080	734.627886	-338.380126	1.130453	452.522643	-418.255794	-69.106632	435.189463	-377.959014	93.468240	309.644053	-451.563665	220.121550	658.928370	-477.427361	180.669317	585.490314	-459.623525	106.125492	538.163120	-447.813108	206.324705	566.725957	-436.334409	192.397913	292.971824	-386.955881	-216.083506	952.439244	-257.132770	-18.115692	81.072445	-460.634335	-17.873154	80.882259	-62.010301	
4	0.0200	433.370748	1448.032502	-96.879727	417.842277	1466.215151	-420.812608	324.730919	1565.820919	-255.303327	380.232682	1398.608901	-264.537378	559.930453	1192.103923	-36.803552	772.179519	972.189488	-72.718491	524.771510	1179.045465	-498.410769	768.915031	962.759702	-478.532877	-143.887583	1178.599767	-256.247749	70.437464	1219.672972	-459.027546	75.782424	1214.223563	-61.509465	116.742124	1148.696431	-430.630858	109.875838	1153.151190	-101.010996	-111.000189	1253.955787	-203.165269	-112.594312	1243.603577	-297.799293	45.974622	1073.258303	-39.859479	0.032887	1069.270569	-469.912462	174.680463	1004.297091	-45.479064	262.057736	989.566702	-58.660008	327.954256	933.918686	-73.387786	275.050643	1022.021306	-72.107722	422.969157	876.992282	-94.277235	426.238825	858.065801	-222.272850	388.528508	718.116402	-78.797391	389.769454	631.149146	-95.355791	348.917279	553.766065	-95.575425	414.074916	628.399507	-126.809809	304.589788	427.175453	-106.170040	239.871722	411.343186	-152.222704	522.908768	361.662878	-152.110655	452.562582	339.442767	-81.980407	110.879502	966.946021	-490.557421	185.911793	925.709796	-489.429923	212.263458	950.917989	-481.747604	231.823515	848.027106	-486.866999	313.498395	741.533595	-465.798671	332.057646	734.597796	-338.291359	1.092509	452.622256	-418.352139	-69.109521	435.354866	-377.968504	93.450085	309.796562	-451.560071	220.288414	658.884711	-477.114393	180.562218	585.184451	-458.902301	106.209575	538.177643	-447.619299	208.209200	572.420330	-440.677731	192.341657	293.146908	-386.998664	-216.191176	952.457744	-256.971574	-17.900487	81.194295	-460.350900	-17.730729	80.854845	-62.086068	
